
<svg width="120" height="40" viewBox="0 0 120 40" fill="none" xmlns="http://www.w3.org/2000/svg">
  <path d="M22.9258 7.5C19.1258 7.5 16.7188 8.83594 14.4023 12.1484L14.0039 7.89844H7.5V40H15.4766V25.9961C16.6953 29.4648 19.5898 31.3281 23.4219 31.3281C29.6836 31.3281 34.9219 25.5977 34.9219 19.1016C34.9219 12.7109 30.1055 7.5 22.9258 7.5ZM20.9648 24.5039C17.8555 24.5039 15.4766 22.2656 15.4766 19.2539C15.4766 16.2422 17.8555 14.0039 20.9648 14.0039C24.0742 14.0039 26.4531 16.2422 26.4531 19.2539C26.4531 22.2656 24.0742 24.5039 20.9648 24.5039Z" fill="#9b87f5"/>
  <path d="M47.3086 7.5C40.207 7.5 35.0195 12.9375 35.0195 19.4141C35.0195 25.8906 40.207 31.3281 47.3086 31.3281C54.4102 31.3281 59.5977 25.8906 59.5977 19.4141C59.5977 12.9375 54.4102 7.5 47.3086 7.5ZM47.3086 24.5039C44.1992 24.5039 42.9805 22.1914 42.9805 19.4141C42.9805 16.6367 44.1992 14.3242 47.3086 14.3242C50.418 14.3242 51.6367 16.6367 51.6367 19.4141C51.6367 22.1914 50.418 24.5039 47.3086 24.5039Z" fill="#9b87f5"/>
  <path d="M75.1641 7.5C72.2891 7.5 69.7188 8.75391 68.3828 10.9258V7.89844H61.3281V30.9297H69.3047V19.4141C69.3047 16.4023 70.6758 14.793 73.0898 14.793C75.3359 14.793 76.6367 16.25 76.6367 19.1797V30.9297H84.6133V16.7891C84.6133 11.0781 80.7773 7.5 75.1641 7.5Z" fill="#9b87f5"/>
  <path d="M95.9375 20.3516L102.418 30.9297H111.414L101.891 16.7891L110.578 7.89844H102.043L95.9375 14.5586V0.5H87.9609V30.9297H95.9375V20.3516Z" fill="#33C3F0"/>
</svg>
